<?xml version="1.0" encoding="UTF-8"?>
<svg version="1.1" xmlns="http://www.w3.org/2000/svg" width="384" height="384">
<path d="M0 0 C0.95907214 -0.00322445 1.91814428 -0.00644889 2.90627921 -0.00977105 C4.47470668 -0.00744815 4.47470668 -0.00744815 6.07481956 -0.00507832 C7.19178479 -0.00734387 8.30875001 -0.00960943 9.45956266 -0.01194364 C13.2097739 -0.01828394 16.95994901 -0.01745426 20.71016502 -0.01662922 C23.39565733 -0.01962061 26.08114678 -0.02299465 28.7666378 -0.02680683 C35.30754484 -0.03510938 41.84844286 -0.03786146 48.38935472 -0.03841921 C53.70385683 -0.03889437 59.01835596 -0.0409491 64.33285713 -0.04411983 C79.39526616 -0.05292377 94.45766807 -0.05753938 109.52007969 -0.05678936 C110.33191429 -0.0567494 111.1437489 -0.05670945 111.98018456 -0.05666828 C112.79300795 -0.0566274 113.60583134 -0.05658652 114.44328575 -0.0565444 C127.62943414 -0.05613756 140.81555402 -0.06571741 154.00169416 -0.07980665 C167.53602749 -0.09415411 181.07034691 -0.1010778 194.60468805 -0.10021287 C202.20538689 -0.09988043 209.80605582 -0.1026482 217.40674782 -0.11339092 C223.87484967 -0.1224743 230.34290803 -0.12468891 236.81101348 -0.1178815 C240.11263959 -0.11460586 243.41416437 -0.115674 246.71578598 -0.12323475 C250.29004818 -0.13089244 253.86408793 -0.12635141 257.43834496 -0.11860371 C258.48842472 -0.12374727 259.53850448 -0.12889083 260.62040484 -0.13419026 C262.0511898 -0.12729207 262.0511898 -0.12729207 263.51087952 -0.12025452 C264.33633919 -0.12047188 265.16179887 -0.12068925 266.01227248 -0.12091321 C268.12959862 0.12863445 268.12959862 0.12863445 271.12959862 2.12863445 C271.12959862 2.78863445 271.12959862 3.44863445 271.12959862 4.12863445 C271.78959862 4.12863445 272.44959862 4.12863445 273.12959862 4.12863445 C273.24400062 39.33165214 273.3321254 74.53463227 273.38492526 109.73779668 C273.39117893 113.89224616 273.39765052 118.04669528 273.40425682 122.20114422 C273.40556837 123.02823296 273.40687992 123.8553217 273.40823122 124.70747373 C273.42999785 138.10602886 273.46942628 151.50447692 273.5153626 164.90296849 C273.5620923 178.64732678 273.58988662 192.39162892 273.60004109 206.1360634 C273.60690752 214.6196706 273.62860733 223.10297517 273.66918095 231.58648924 C273.69557634 237.40107982 273.70360693 243.21551356 273.6971055 249.03015973 C273.69389741 252.38697159 273.70159019 255.74282642 273.72562599 259.09961796 C273.75040224 262.73729546 273.74455846 266.37366462 273.7308712 270.01137066 C273.74543541 271.07459913 273.75999961 272.1378276 273.77500516 273.23327512 C273.72957317 277.68215152 273.55747008 280.3986507 271.27999973 284.28420162 C266.59508547 287.02703003 262.46337808 286.81691672 257.12190819 286.75682354 C255.99818699 286.76391793 254.8744658 286.77101231 253.71669245 286.77832168 C249.94317487 286.79595391 246.17068014 286.7777688 242.39717674 286.75973797 C239.6952082 286.76211728 236.99327832 286.77196519 234.29132652 286.78142071 C227.70954197 286.79980551 221.12805416 286.79127957 214.54627883 286.77333248 C209.19744894 286.75931013 203.84869964 286.75541289 198.49985313 286.75877476 C197.73874986 286.7592522 196.97764658 286.75972964 196.19347957 286.76022155 C194.64734087 286.76124788 193.1012022 286.76230323 191.55506355 286.76338731 C177.88144422 286.77195607 164.20796822 286.75527375 150.53438377 286.72555828 C137.26446576 286.69672042 123.99475422 286.68963708 110.72481346 286.70505047 C96.27676117 286.72180927 81.82880693 286.72585014 67.38075209 286.70834011 C65.84028277 286.70649571 64.29981344 286.70466098 62.7593441 286.70283604 C61.62241636 286.7014679 61.62241636 286.7014679 60.46252039 286.70007213 C55.11976391 286.69446472 49.77705527 286.69777581 44.43430138 286.70438099 C37.92373513 286.71211033 31.41337219 286.70537619 24.90284693 286.68020595 C21.58057939 286.6677011 18.25889267 286.66372049 14.93657303 286.67274761 C11.33647625 286.68140396 7.73730799 286.66554925 4.13728905 286.64329815 C3.08525307 286.65153892 2.0332171 286.65977968 0.94930124 286.66827017 C-3.16259282 286.62118615 -6.21442956 286.40850121 -10.01996136 284.78489208 C-13.01095999 280.49139279 -12.54828382 276.2233328 -12.48513222 271.11384869 C-12.49081547 269.97732013 -12.49649873 268.84079157 -12.5023542 267.66982275 C-12.51531216 263.84705003 -12.49241794 260.02532462 -12.46976662 256.20260906 C-12.46886002 253.46799245 -12.47545924 250.73340577 -12.48171425 247.99879742 C-12.49239478 241.33397401 -12.47642526 234.66946613 -12.45157599 228.00469082 C-12.42367275 220.24722328 -12.42230309 212.48982 -12.42213298 204.7323106 C-12.42094517 190.8938919 -12.39595896 177.05561836 -12.35746193 163.2172575 C-12.3201086 149.78136739 -12.29886598 136.34558285 -12.29593849 122.90964031 C-12.29575568 122.08200265 -12.29557287 121.25436498 -12.29538452 120.40164738 C-12.29520555 119.57545687 -12.29502658 118.74926635 -12.29484218 117.89803976 C-12.29447677 116.23465216 -12.2941044 114.57126456 -12.29372501 112.90787697 C-12.2935395 112.08760242 -12.29335398 111.26732786 -12.29316285 110.4221965 C-12.28959449 97.62825712 -12.27114481 84.8343341 -12.25123177 72.0404113 C-12.24420416 67.39936968 -12.23942435 62.75833194 -12.23627042 58.11728614 C-12.23122601 50.75678155 -12.2198255 43.39635053 -12.19497012 36.03588384 C-12.18373127 32.67148123 -12.17669012 29.30721377 -12.17610359 25.9427824 C-12.17485269 22.30056863 -12.16136081 18.65860687 -12.14455605 15.01643658 C-12.14697113 13.94621995 -12.14938621 12.87600333 -12.15187448 11.7733559 C-12.14480889 10.80146558 -12.1377433 9.82957526 -12.1304636 8.82823372 C-12.12851268 7.98704316 -12.12656175 7.14585259 -12.12455171 6.27917141 C-11.87040138 4.12863445 -11.87040138 4.12863445 -9.87040138 1.12863445 C-6.5733562 0.16327569 -3.42024236 0.00291759 0 0 Z M1.12959862 14.12863445 C0.79959862 39.86863445 0.46959862 65.60863445 0.12959862 92.12863445 C12.79334862 92.14925945 25.45709862 92.16988445 38.50459862 92.19113445 C44.50719872 92.20479046 44.50719872 92.20479046 50.63106346 92.21872234 C54.21158366 92.22206634 54.21158366 92.22206634 57.79210472 92.22407818 C59.38951966 92.22561589 60.98693342 92.2291373 62.58434105 92.23421001 C65.00097744 92.24150203 67.41754276 92.24254137 69.83418846 92.24215984 C70.54835615 92.24575795 71.26252384 92.24935606 71.99833298 92.2530632 C75.68773032 92.29584686 75.68773032 92.29584686 79.12959862 91.12863445 C79.12959862 65.71863445 79.12959862 40.30863445 79.12959862 14.12863445 C75.60999896 12.95543457 72.83488486 13.00154174 69.11958885 12.99923992 C68.41035271 12.9974876 67.70111656 12.99573528 66.97038841 12.99392986 C64.62629817 12.98952889 62.28228338 12.99244286 59.93819237 12.99582195 C58.31059314 12.99514848 56.68299401 12.9941781 55.05539513 12.99292278 C51.6449799 12.99144825 48.23459087 12.99359281 44.8241787 12.99826336 C40.44692434 13.00396503 36.06973125 13.00067733 31.69247913 12.9946909 C28.33225605 12.99108256 24.97204756 12.99222505 21.61182404 12.99481869 C19.99743772 12.99548696 18.38305009 12.99466298 16.76866531 12.99233913 C14.51581227 12.98980766 12.26305941 12.99366 10.01021385 12.99923992 C8.08519287 13.00043331 8.08519287 13.00043331 6.12128258 13.00165081 C3.20363135 12.92125101 3.20363135 12.92125101 1.12959862 14.12863445 Z M181.12959862 14.12863445 C181.02403245 16.49085663 180.98281364 18.82398829 180.98433495 21.18698406 C180.98097633 21.92518887 180.97761772 22.66339367 180.97415733 23.42396832 C180.9646198 25.87632183 180.96270282 28.32860727 180.96162987 30.7809782 C180.95841922 32.4786968 180.9550553 34.17641511 180.95154381 35.87413311 C180.94554551 39.43773318 180.94370462 43.00130898 180.94429588 46.56491375 C180.94439754 51.13956489 180.93074442 55.71406095 180.91352367 60.28867531 C180.90242517 63.79645285 180.90037601 67.30419266 180.90090561 70.81198597 C180.89972227 72.49894591 180.89528084 74.18590672 180.88757324 75.87284946 C180.87781653 78.22897471 180.88063409 80.58476003 180.8866787 82.94089031 C180.88105919 83.64278484 180.87543968 84.34467937 180.86964989 85.06784344 C180.79181082 89.04254393 180.79181082 89.04254393 183.12959862 92.12863445 C185.59908934 92.31636711 187.95539845 92.38059749 190.42500877 92.35568523 C191.55198425 92.35612331 191.55198425 92.35612331 192.70172691 92.35657024 C195.19082153 92.35517433 197.67961864 92.33960103 200.16866112 92.32394695 C201.89216002 92.32021775 203.61566105 92.31737034 205.33916283 92.31537151 C209.87990209 92.30772775 214.42051382 92.28807293 218.96120262 92.26596355 C223.5928379 92.24552109 228.22449375 92.23637323 232.85616112 92.2262907 C241.94736305 92.2048277 251.03847024 92.17068284 260.12959862 92.12863445 C260.15272254 81.97597295 260.17051396 71.82331766 260.18141079 61.67063522 C260.18663951 56.95683712 260.19373695 52.24305698 260.20503807 47.52926922 C260.21586735 42.98408042 260.22187554 38.43890893 260.22447586 33.89370823 C260.22633004 32.15568487 260.22995051 30.41766251 260.23532867 28.67964649 C260.24253965 26.25384851 260.24358954 23.82812299 260.24312401 21.40231609 C260.24851692 20.3136726 260.24851692 20.3136726 260.25401878 19.20303631 C260.53778461 15.88263558 260.53778461 15.88263558 259.12959862 13.12863445 C256.73150713 13.0283565 254.36220363 12.99244769 251.96358299 12.99923992 C250.83923599 12.99661144 250.83923599 12.99661144 249.69217491 12.99392986 C247.20254293 12.98951125 244.71298139 12.99244936 242.22334862 12.99582195 C240.5008143 12.99514892 238.77828007 12.99417889 237.05574608 12.99292278 C233.44086874 12.9914458 229.82601606 12.99360038 226.21114159 12.99826336 C221.56693369 13.00396065 216.92278358 13.00068165 212.2785778 12.9946909 C208.72023136 12.9910853 205.16189872 12.99222386 201.60355186 12.99481869 C199.890651 12.99548796 198.1777489 12.99465952 196.46484947 12.99233913 C194.0750704 12.98981263 191.68538621 12.99365315 189.29561424 12.99923992 C188.5807737 12.99721569 187.86593315 12.99519146 187.12943077 12.99310589 C183.84787544 12.72459579 183.84787544 12.72459579 181.12959862 14.12863445 Z M91.12959862 14.12863445 C91.12959862 39.86863445 91.12959862 65.60863445 91.12959862 92.12863445 C116.86959862 92.12863445 142.60959862 92.12863445 169.12959862 92.12863445 C169.15022362 79.27925945 169.17084862 66.42988445 169.19209862 53.19113445 C169.20120262 49.12809002 169.21030663 45.06504559 169.21968651 40.87887859 C169.22303014 37.24911065 169.22303014 37.24911065 169.22504234 33.61934185 C169.22658184 31.99771634 169.2301069 30.37609201 169.23517418 28.75447369 C169.24245205 26.30373413 169.24350602 23.85306477 169.24312401 21.40231609 C169.24852117 20.31161485 169.24852117 20.31161485 169.25402737 19.19887924 C169.53745329 15.88069398 169.53745329 15.88069398 168.12959862 13.12863445 C166.0605758 13.02916128 163.98812016 13.00063814 161.91670799 12.99923992 C161.2677758 12.9974876 160.61884361 12.99573528 159.95024681 12.99392986 C157.791254 12.9895072 155.63234236 12.99245348 153.47334862 12.99582195 C151.97176154 12.99514838 150.47017458 12.9941779 148.96858788 12.99292278 C145.81098461 12.99144472 142.65340955 12.9936014 139.49580956 12.99826336 C135.46893846 13.00392163 131.44213459 13.00070733 127.41526604 12.9946909 C124.30781625 12.99105464 121.20038204 12.99223854 118.09293175 12.99481869 C116.60992996 12.99548155 115.12692671 12.99468216 113.64392662 12.99233913 C111.55512902 12.98976654 109.46643546 12.99371881 107.37764549 12.99923992 C106.19263451 13.00003551 105.00762352 13.00083111 103.78670311 13.00165081 C99.55352802 13.14863704 95.33941797 13.66087675 91.12959862 14.12863445 Z M1.12959862 104.12863445 C0.27525727 122.33714936 0.27525727 122.33714936 0.03194237 140.52707195 C0.03294945 141.60577557 0.03395653 142.68447918 0.03499413 143.79587078 C0.04009538 147.69847001 0.0540523 151.6010537 0.06709862 155.50363445 C0.08772362 164.28988445 0.10834862 173.07613445 0.12959862 182.12863445 C26.19959862 182.12863445 52.26959862 182.12863445 79.12959862 182.12863445 C79.12959862 156.38863445 79.12959862 130.64863445 79.12959862 104.12863445 C53.38959862 104.12863445 27.64959862 104.12863445 1.12959862 104.12863445 Z M92.12959862 104.12863445 C91.27028366 121.8976987 91.27028366 121.8976987 91.03194237 139.6481657 C91.03294945 140.7475346 91.03395653 141.8469035 91.03499413 142.9795866 C91.04010538 146.9667803 91.05406298 150.95395878 91.06709862 154.94113445 C91.08772362 163.91300945 91.10834862 172.88488445 91.12959862 182.12863445 C116.86959862 182.12863445 142.60959862 182.12863445 169.12959862 182.12863445 C169.12959862 156.38863445 169.12959862 130.64863445 169.12959862 104.12863445 C143.71959862 104.12863445 118.30959862 104.12863445 92.12959862 104.12863445 Z M182.12959862 104.12863445 C181.13237087 108.11754542 181.00910319 111.27732294 181.01607323 115.37570477 C181.01595269 116.10968864 181.01583216 116.84367252 181.01570797 117.59989834 C181.01645261 119.96888318 181.02406038 122.33778874 181.03194237 124.70675945 C181.03341318 126.1720911 181.03443303 127.63742327 181.03499413 129.10275555 C181.0402309 134.52805654 181.05419214 139.95334628 181.06709862 145.37863445 C181.08772362 157.50613445 181.10834862 169.63363445 181.12959862 182.12863445 C207.19959862 182.12863445 233.26959862 182.12863445 260.12959862 182.12863445 C260.12959862 156.38863445 260.12959862 130.64863445 260.12959862 104.12863445 C234.38959862 104.12863445 208.64959862 104.12863445 182.12959862 104.12863445 Z M1.12959862 194.12863445 C0.22425009 224.35173516 0.22425009 224.35173516 0.56709862 254.50363445 C0.62081537 256.25751089 0.67354361 258.01141787 0.72530174 259.7653532 C0.84892527 263.88688255 0.98502481 268.00778916 1.12959862 272.12863445 C4.88434928 273.32492702 8.45647921 273.24882683 12.37666893 273.24215984 C13.09901726 273.24230587 13.82136559 273.2424519 14.56560326 273.24260235 C16.9463409 273.24190729 19.32699969 273.23413395 21.70772362 273.2262907 C23.36110453 273.22442508 25.014486 273.22300186 26.66786766 273.22200298 C31.01454259 273.21818918 35.36118399 273.2083686 39.70784569 273.197299 C44.14530038 273.18706044 48.58276051 273.18250012 53.02022362 273.17746258 C61.72336399 273.16674531 70.42647713 273.14968254 79.12959862 273.12863445 C79.15273625 263.12362756 79.17052098 253.11862699 79.18141079 243.11359882 C79.18663649 238.46821048 79.19372851 233.82284041 79.20503807 229.17746258 C79.21587801 224.69710771 79.22187781 220.21677043 79.22447586 215.73640347 C79.22632811 214.02432637 79.2299449 212.31225026 79.23532867 210.60018063 C79.24255376 208.20811386 79.24358893 205.81612047 79.24312401 203.42404461 C79.24851692 202.35482014 79.24851692 202.35482014 79.25401878 201.26399517 C79.29712138 197.57249676 79.29712138 197.57249676 78.12959862 194.12863445 C52.71959862 194.12863445 27.30959862 194.12863445 1.12959862 194.12863445 Z M91.12959862 194.12863445 C91.08329515 203.98597155 91.04773954 213.84328285 91.02597427 223.70070648 C91.015529 228.27771434 91.00135625 232.85464788 90.97871971 237.43161297 C90.95701783 241.8471395 90.94503559 246.26259447 90.93984413 250.6781702 C90.9361436 252.36430965 90.92891754 254.0504451 90.9181385 255.73655415 C90.90365878 258.09495469 90.90161919 260.45305807 90.90254784 262.81149578 C90.89535728 263.51136608 90.88816673 264.21123638 90.88075829 264.93231487 C90.89629634 268.56967011 91.0501002 270.00938683 93.12959862 273.12863445 C95.61385745 273.41535806 97.84820753 273.50731175 100.3332119 273.46921062 C101.07477531 273.4696487 101.81633873 273.47008678 102.58037376 273.47053814 C105.03715193 273.46844424 107.49325184 273.44508571 109.94991112 273.4216032 C111.65098765 273.41600937 113.352069 273.41173827 115.05315208 273.40874004 C119.53478352 273.39727449 124.01612421 273.3677928 128.49764061 273.33462811 C133.06893035 273.30396393 137.64026697 273.29024254 142.21162987 273.27511883 C151.184414 273.24292458 160.15698215 273.19170774 169.12959862 273.12863445 C169.15272254 262.97597295 169.17051396 252.82331766 169.18141079 242.67063522 C169.18663951 237.95683712 169.19373695 233.24305698 169.20503807 228.52926922 C169.21586735 223.98408042 169.22187554 219.43890893 169.22447586 214.89370823 C169.22633004 213.15568487 169.22995051 211.41766251 169.23532867 209.67964649 C169.24253965 207.25384851 169.24358954 204.82812299 169.24312401 202.40231609 C169.24851692 201.3136726 169.24851692 201.3136726 169.25401878 200.20303631 C169.53778461 196.88263558 169.53778461 196.88263558 168.12959862 194.12863445 C165.72611576 194.03366738 163.3514888 194.00304584 160.94771385 194.01510906 C160.19654289 194.01496304 159.44537193 194.01481701 158.67143822 194.01466656 C156.17699403 194.01536582 153.68262359 194.02315881 151.18819237 194.0309782 C149.46326297 194.03284234 147.73833305 194.03426626 146.01340294 194.03526592 C141.46447358 194.03909148 136.91557595 194.04892208 132.36665916 194.0599699 C127.72839856 194.07018322 123.09013284 194.07476337 118.45186424 194.07980633 C109.3444284 194.09054432 100.23701614 194.10762118 91.12959862 194.12863445 Z M182.12959862 194.12863445 C180.95849895 197.64193344 180.99732587 200.79227931 181.01607323 204.44577312 C181.01595269 205.19946084 181.01583216 205.95314856 181.01570797 206.72967529 C181.01645419 209.16868131 181.02406922 211.60761086 181.03194237 214.0466032 C181.03341269 215.55266565 181.03443284 217.05872861 181.03499413 218.56479168 C181.04023659 224.1485804 181.05419779 229.73235818 181.06709862 235.31613445 C181.08772362 247.79425945 181.10834862 260.27238445 181.12959862 273.12863445 C207.19959862 273.12863445 233.26959862 273.12863445 260.12959862 273.12863445 C260.12959862 247.05863445 260.12959862 220.98863445 260.12959862 194.12863445 C234.38959862 194.12863445 208.64959862 194.12863445 182.12959862 194.12863445 Z " fill="#010101" transform="translate(61.87040138244629,48.871365547180176)"/>
<path d="M0 0 C1.64800037 -0.00483667 1.64800037 -0.00483667 3.32929367 -0.00977105 C4.53598947 -0.00822245 5.74268527 -0.00667385 6.98594761 -0.00507832 C8.90913558 -0.00847665 8.90913558 -0.00847665 10.87117583 -0.01194364 C14.43258598 -0.0180687 17.99397268 -0.01792722 21.5553869 -0.01674926 C25.39526093 -0.01654544 29.23512739 -0.02206224 33.0749979 -0.02680683 C40.59863615 -0.03511756 48.12226655 -0.03786185 55.645909 -0.03841921 C61.75990293 -0.03889412 67.87389427 -0.04094763 73.98788738 -0.04411983 C91.3149117 -0.05292717 108.64192983 -0.05753903 125.9689564 -0.05678936 C127.37046848 -0.05672943 127.37046848 -0.05672943 128.80029392 -0.05666828 C130.20351314 -0.05660696 130.20351314 -0.05660696 131.63508023 -0.0565444 C146.80192983 -0.05613779 161.96875462 -0.06571079 177.13559704 -0.07980665 C192.70167041 -0.09415964 208.26773167 -0.10107744 223.83381182 -0.10021287 C232.57588916 -0.09988055 241.31794048 -0.10264292 250.06001186 -0.11339092 C257.50194654 -0.12248172 264.94384341 -0.12468286 272.38578122 -0.1178815 C276.18382968 -0.11460923 279.98180553 -0.11458501 283.77984715 -0.12323475 C287.89425696 -0.13250878 292.00849757 -0.12634229 296.1229105 -0.11860371 C297.32737558 -0.12374727 298.53184066 -0.12889083 299.77280468 -0.13419026 C301.42471666 -0.12729207 301.42471666 -0.12729207 303.11000061 -0.12025452 C304.05979119 -0.12047188 305.00958176 -0.12068925 305.98815387 -0.12091321 C308.84694215 0.15036707 311.01665632 0.94074416 313.61792088 2.12863445 C313.61792088 2.78863445 313.61792088 3.44863445 313.61792088 4.12863445 C314.27792088 4.12863445 314.93792088 4.12863445 315.61792088 4.12863445 C317.61792088 7.12863445 317.61792088 7.12863445 317.61792088 10.12863445 C318.27792088 10.12863445 318.93792088 10.12863445 319.61792088 10.12863445 C319.6865649 50.4104173 319.73943843 90.69219253 319.77111686 130.97402216 C319.77486905 135.72803364 319.77875201 140.48204501 319.7827158 145.23605633 C319.78350273 146.18250735 319.78428966 147.12895837 319.78510044 148.10408972 C319.79815972 163.43542172 319.82181644 178.76672002 319.84937926 194.09803201 C319.87741893 209.82557147 319.89409409 225.55309327 319.90018636 241.2806567 C319.90430579 250.98794278 319.91732374 260.69513363 319.94167028 270.40239041 C319.9575097 277.05608756 319.9623253 283.70973536 319.95842501 290.36345001 C319.95650066 294.20416404 319.95948181 298.04471148 319.9755373 301.885396 C319.99281119 306.04789395 319.98689433 310.21003591 319.97868443 314.37256145 C319.98742295 315.58851502 319.99616147 316.80446858 320.0051648 318.05726922 C319.94876314 328.59686778 319.94876314 328.59686778 316.61792088 333.12863445 C315.62792088 333.45863445 314.63792088 333.78863445 313.61792088 334.12863445 C313.61792088 334.78863445 313.61792088 335.44863445 313.61792088 336.12863445 C312.29792088 336.12863445 310.97792088 336.12863445 309.61792088 336.12863445 C309.28792088 336.78863445 308.95792088 337.44863445 308.61792088 338.12863445 C268.46354235 338.22016005 228.30917741 338.29065796 188.15471544 338.33289577 C183.41572515 338.33789869 178.67673507 338.34307597 173.93774509 338.34836102 C172.52255449 338.34993488 172.52255449 338.34993488 171.07877417 338.35154054 C155.7959271 338.36895286 140.51314013 338.40049511 125.23032872 338.43724564 C109.55251146 338.47463202 93.87472569 338.49686543 78.19686568 338.50498843 C68.52025653 338.51048099 58.84381724 338.52783801 49.16726036 338.56030032 C42.53457968 338.58141979 35.90198699 338.58784033 29.26927511 338.58263996 C25.44066147 338.58007417 21.61234493 338.58404851 17.78378391 338.60545635 C13.63433742 338.62848925 9.48552572 338.62059919 5.33603001 338.60965252 C4.12396739 338.62130388 2.91190478 338.63295525 1.663113 338.64495969 C-4.49513541 338.60088176 -8.65787827 338.52055658 -13.38207912 334.12863445 C-14.54219808 333.15940501 -14.54219808 333.15940501 -15.72575378 332.17059517 C-18.44796239 327.1710631 -17.92726258 322.05492341 -17.88328457 316.45726299 C-17.89158616 314.50322509 -17.89158616 314.50322509 -17.90005547 312.50971168 C-17.91482382 308.89534042 -17.904621 305.28140422 -17.89031875 301.6670469 C-17.87922044 297.76852953 -17.89114781 293.87007376 -17.90016079 289.97156048 C-17.91410347 282.33470264 -17.90652934 274.69801002 -17.89148521 267.06116004 C-17.8746348 258.16925313 -17.87783419 249.27738749 -17.88157929 240.38546955 C-17.88745984 224.52012066 -17.87327911 208.65485111 -17.84863186 192.78952312 C-17.82471457 177.39235745 -17.81762578 161.99529779 -17.82812405 146.59811687 C-17.83953259 129.83583685 -17.84146379 113.07360588 -17.82702595 96.31132644 C-17.8255001 94.52397279 -17.82397974 92.73661914 -17.82246494 90.94926548 C-17.82170713 90.06983352 -17.82094931 89.19040155 -17.82016854 88.28432013 C-17.8154249 82.08543531 -17.81727774 75.88657237 -17.82153034 69.68768787 C-17.8264564 62.13305529 -17.8204755 54.57852296 -17.80063605 47.02391333 C-17.79076211 43.16900487 -17.78565995 39.31424908 -17.79352856 35.45933247 C-17.80188134 31.28173998 -17.78700925 27.10455468 -17.76975918 22.92698956 C-17.77576922 21.7066647 -17.78177927 20.48633984 -17.78797144 19.22903544 C-17.70981597 8.85701008 -17.70981597 8.85701008 -14.38207912 4.12863445 C-9.74277191 0.67889319 -5.67301781 0.00420819 0 0 Z M-5.38207912 14.12863445 C-5.4792689 15.78631111 -5.50579463 17.44816134 -5.50512695 19.10868454 C-5.50711782 20.194354 -5.5091087 21.28002346 -5.5111599 22.398592 C-5.50824723 23.60542169 -5.50533457 24.81225138 -5.50233364 26.05565166 C-5.50318966 27.32340939 -5.50404568 28.59116711 -5.50492764 29.89734173 C-5.50718235 33.43951323 -5.50314127 36.9816548 -5.49815185 40.5238225 C-5.49380397 44.39349401 -5.49524522 48.26316401 -5.49596977 52.1328373 C-5.49650276 59.6541492 -5.49187251 67.17544922 -5.48546844 74.69675806 C-5.478286 83.39145861 -5.47747466 92.08615196 -5.47668362 100.78085613 C-5.47142707 123.7509508 -5.45746605 146.7210428 -5.44457912 169.69113445 C-5.42395412 220.98550945 -5.40332912 272.27988445 -5.38207912 325.12863445 C97.57792088 325.12863445 200.53792088 325.12863445 306.61792088 325.12863445 C306.61792088 222.16863445 306.61792088 119.20863445 306.61792088 13.12863445 C255.32354588 13.10800945 204.02917088 13.08738445 151.18042088 13.06613445 C126.8394968 13.05247845 126.8394968 13.05247845 102.00683689 13.03854656 C87.52629958 13.0352032 87.52629958 13.0352032 73.04576206 13.03319073 C66.56996902 13.03225487 60.09418451 13.02857274 53.6183939 13.02305889 C46.15951183 13.01671731 38.70063801 13.01379291 31.24175322 13.0151895 C27.42189614 13.01579491 23.60205753 13.01479988 19.78220379 13.00941932 C15.70310266 13.00370818 11.62404226 13.00562563 7.54493809 13.00837994 C6.3381084 13.00546727 5.13127871 13.00255461 3.88787842 12.99955368 C2.25937423 13.00253999 2.25937423 13.00253999 0.59797096 13.00558662 C-0.3463935 13.0052069 -1.29075796 13.00482718 -2.26373953 13.00443596 C-4.36729988 12.89235258 -4.36729988 12.89235258 -5.38207912 14.12863445 Z " fill="#010101" transform="translate(41.382079124450684,22.871365547180176)"/>
<path d="M0 0 C0.99 0.33 1.98 0.66 3 1 C4.6875 2.375 4.6875 2.375 6 4 C6 4.99 6 5.98 6 7 C6.66 7.33 7.32 7.66 8 8 C8 9.32 8 10.64 8 12 C8.66 12 9.32 12 10 12 C10.35892928 18.60695756 9.91053347 23.06251172 7 29 C6.30859478 31.77888613 6.30859478 31.77888613 6 34 C6.99 34.495 6.99 34.495 8 35 C8 36.32 8 37.64 8 39 C8.66 39 9.32 39 10 39 C9.74378181 46.68654573 8.96313504 52.35216058 5 59 C4.01 59 3.02 59 2 59 C1.67 59.99 1.34 60.98 1 62 C-5.34544791 65.51240055 -13.31413472 66.25816693 -20.26953125 64.390625 C-22.21463273 63.68331537 -24.11136874 62.8466278 -26 62 C-26.67804688 61.70351563 -27.35609375 61.40703125 -28.0546875 61.1015625 C-31.76994089 58.99774431 -33.51755829 55.93552979 -35 52 C-35.75642655 45.91356786 -36.16385111 39.59064038 -33.3125 34 C-32.879375 33.01 -32.44625 32.02 -32 31 C-32.46019531 30.0925 -32.92039062 29.185 -33.39453125 28.25 C-35.22623992 24.54201554 -35.40203907 22.10993813 -35.375 18 C-35.38273437 16.824375 -35.39046875 15.64875 -35.3984375 14.4375 C-34.65468093 8.02077661 -31.77588825 4.16817847 -26.8828125 0.2578125 C-18.45405839 -5.37301494 -8.78187287 -3.40341659 0 0 Z M-20 11 C-22.29575603 13.29575603 -22.32339599 14.00842525 -22.625 17.125 C-22.74875 18.40375 -22.8725 19.6825 -23 21 C-22.34 21 -21.68 21 -21 21 C-20.67 21.99 -20.34 22.98 -20 24 C-11.82708276 25.38164694 -11.82708276 25.38164694 -4.125 22.875 C-2.34481666 19.90802777 -2.69874808 17.37402153 -3 14 C-4.75902067 10.59793592 -4.75902067 10.59793592 -8.6875 10.25 C-12.59270338 9.90144815 -16.15485273 10.1540676 -20 11 Z M-20 37 C-21.93395001 39.90092502 -22.30131941 40.89674737 -22.625 44.1875 C-22.74875 45.445625 -22.8725 46.70375 -23 48 C-22.34 48 -21.68 48 -21 48 C-20.34 49.32 -19.68 50.64 -19 52 C-12.565 51.505 -12.565 51.505 -6 51 C-5.67 50.01 -5.34 49.02 -5 48 C-4.34 48 -3.68 48 -3 48 C-2.68238334 43.25024897 -2.68238334 43.25024897 -4.0703125 38.79296875 C-6.94168114 36.12503716 -9.2168339 36.50284644 -13.0625 36.5625 C-14.31160156 36.56378906 -15.56070313 36.56507813 -16.84765625 36.56640625 C-17.88792969 36.70949219 -18.92820312 36.85257812 -20 37 Z " fill="#010101" transform="translate(115,252)"/>
<path d="M0 0 C12.29487768 -1.0743097 12.29487768 -1.0743097 16.41796875 1.5234375 C18.09147642 3.27187835 19.54033482 5.07379627 21 7 C21.66 7.33 22.32 7.66 23 8 C23 9.32 23 10.64 23 12 C23.66 12 24.32 12 25 12 C25.4731614 19.88602342 25.17981006 25.20780865 21 32 C21.66 32 22.32 32 23 32 C25.44149745 39.32449234 26.37534438 43.52635548 24 51 C22.53732466 53.5409616 21.19137224 54.96897207 19 57 C18.01 57 17.02 57 16 57 C16 57.66 16 58.32 16 59 C8.84158205 61.07728621 3.75966239 61.35975299 -3 58 C-7.23344858 55.33108677 -9.25174499 52.69268451 -11 48 C-11.59748954 42.12468619 -11.59748954 42.12468619 -9.9375 39 C-8 38 -8 38 -4.625 37.8125 C-0.03644492 39.31564735 0.91190748 41.18609439 3.15234375 45.28515625 C3.43207031 45.85105469 3.71179688 46.41695312 4 47 C6.64 46.67 9.28 46.34 12 46 C11.51421457 42.87709365 11.0013988 40.00419641 10 37 C9.2575 37.0825 8.515 37.165 7.75 37.25 C5 37 5 37 2.6875 35.375 C0.53003702 32.33857062 0.53350302 30.65422636 1 27 C3 24 3 24 5.1640625 23.26953125 C5.97617187 23.11871094 6.78828125 22.96789062 7.625 22.8125 C8.85089844 22.57466797 8.85089844 22.57466797 10.1015625 22.33203125 C10.72804688 22.22246094 11.35453125 22.11289063 12 22 C11.43260132 17.87026372 11.43260132 17.87026372 10 14 C7.67843403 13.59270772 5.3431213 13.25561323 3 13 C2.566875 14.3921875 2.566875 14.3921875 2.125 15.8125 C1 19 1 19 -1 22 C-3.86076138 22.97868153 -5.38702769 23.22135111 -8.25 22.1875 C-10 21 -10 21 -11 19 C-11.3682065 13.45388961 -10.21815314 9.69015593 -6.625 5.4375 C-4.7890625 3.43359375 -4.7890625 3.43359375 -3 2 C-2.01 2 -1.02 2 0 2 C0 1.34 0 0.68 0 0 Z " fill="#010101" transform="translate(276,71)"/>
<path d="M0 0 C1.36067049 0.01005022 2.72134817 0.01917246 4.08203125 0.02734375 C7.38820647 0.0507918 10.6940088 0.08361144 14 0.125 C14 0.785 14 1.445 14 2.125 C14.99 2.455 15.98 2.785 17 3.125 C17 3.785 17 4.445 17 5.125 C17.66 5.455 18.32 5.785 19 6.125 C18.33901656 10.43954002 16.81486946 14.19760244 15.05078125 18.15625 C14.75568161 18.82861694 14.46058197 19.50098389 14.15653992 20.19372559 C13.21318106 22.33956879 12.26282645 24.48223494 11.3125 26.625 C10.69292756 28.03366432 10.07378315 29.44251698 9.45507812 30.8515625 C7.94295574 34.28954596 6.41557078 37.72045769 4.88092041 41.1484375 C4.01553377 43.09014615 3.16228345 45.03686093 2.31005859 46.984375 C1.78879395 48.15484375 1.2675293 49.3253125 0.73046875 50.53125 C0.27438232 51.56572266 -0.1817041 52.60019531 -0.65161133 53.66601562 C-2 56.125 -2 56.125 -5 58.125 C-8.11454177 58.44943143 -10.16247021 58.58429053 -12.9375 57.0625 C-14.63838172 53.96089215 -13.67348241 51.53126681 -13 48.125 C-12.02658757 45.53129582 -11.01912825 43.05998147 -9.875 40.546875 C-9.41456299 39.50699432 -9.41456299 39.50699432 -8.94482422 38.44610596 C-7.97139221 36.25198674 -6.98614471 34.06343072 -6 31.875 C-5.0164697 29.67119922 -4.03538345 27.46632775 -3.05517578 25.26104736 C-2.44666532 23.89433446 -1.83575747 22.52868581 -1.22216797 21.16424561 C-0.02984373 18.50466547 1.07748543 15.89254371 2 13.125 C0.97845825 13.14856567 0.97845825 13.14856567 -0.0637207 13.17260742 C-3.14656281 13.23493222 -6.22927244 13.27398258 -9.3125 13.3125 C-10.38435547 13.33763672 -11.45621094 13.36277344 -12.56054688 13.38867188 C-13.58857422 13.39833984 -14.61660156 13.40800781 -15.67578125 13.41796875 C-16.62364502 13.4336792 -17.57150879 13.44938965 -18.5480957 13.46557617 C-21 13.125 -21 13.125 -22.81713867 11.7980957 C-24.60955321 9.26281875 -24.25673464 7.141632 -24 4.125 C-23 2.125 -23 2.125 -19.875 1.0078125 C-13.35322881 -0.47996655 -6.64740397 -0.08463884 0 0 Z " fill="#010101" transform="translate(286,252.875)"/>
<path d="M0 0 C2.54356861 2.01087815 3.83777672 3.21406633 4.50120544 6.42822266 C4.50137161 7.3310498 4.50153778 8.23387695 4.50170898 9.1640625 C4.51108994 10.19192871 4.52047089 11.21979492 4.53013611 12.27880859 C4.51890213 13.38305176 4.50766815 14.48729492 4.49609375 15.625 C4.49754898 16.76404785 4.49900421 17.9030957 4.50050354 19.07666016 C4.49884409 21.48407551 4.48727785 23.89150141 4.46655273 26.29882812 C4.43760883 29.98613497 4.44594175 33.67200354 4.45898438 37.359375 C4.45274672 39.69792366 4.44435558 42.03646778 4.43359375 44.375 C4.43652939 45.47924316 4.43946503 46.58348633 4.44248962 47.72119141 C4.42980545 48.74905762 4.41712128 49.77692383 4.40405273 50.8359375 C4.39864975 51.73876465 4.39324677 52.6415918 4.38768005 53.57177734 C3.92208022 56.48804823 3.00044523 57.85590153 1 60 C-1.375 61 -1.375 61 -4 61 C-6.61987305 59.53027344 -6.61987305 59.53027344 -9 57 C-9.51549689 53.98984935 -9.72204627 51.52685811 -9.70703125 48.515625 C-9.72215256 47.70003113 -9.73727386 46.88443726 -9.75285339 46.04412842 C-9.79575215 43.44580487 -9.80456998 40.84864249 -9.8125 38.25 C-9.83564278 36.48564617 -9.86100767 34.72131998 -9.88867188 32.95703125 C-9.95154517 28.6379181 -9.98386346 24.31953041 -10 20 C-10.62503418 20.09104004 -11.25006836 20.18208008 -11.89404297 20.27587891 C-13.11824951 20.43709229 -13.11824951 20.43709229 -14.3671875 20.6015625 C-15.17784668 20.71322754 -15.98850586 20.82489258 -16.82373047 20.93994141 C-19 21 -19 21 -21.125 19.375 C-22.23839714 16.35292206 -22.12986831 15.01298215 -21 12 C-19.0625 9.6875 -19.0625 9.6875 -17 8 C-16.34 8 -15.68 8 -15 8 C-15 7.34 -15 6.68 -15 6 C-13.36209288 4.95355934 -11.68991979 3.9601817 -10 3 C-9.360625 2.443125 -8.72125 1.88625 -8.0625 1.3125 C-5.17712108 -0.52365022 -3.35541977 -0.48933205 0 0 Z " fill="#020101" transform="translate(195,164)"/>
<path d="M0 0 C3.55122081 1.42048832 4.40061029 2.61305708 6 6 C7.59643578 8.06776444 9.29138559 10.02160437 11 12 C7.63408134 10.55746343 5.48952921 8.66735273 3 6 C-0.36591866 7.44253657 -2.51047079 9.33264727 -5 12 C-5.99 11.67 -6.98 11.34 -8 11 C-7.50628906 10.54109375 -7.01257813 10.0821875 -6.50390625 9.609375 C-5.54291016 8.68898438 -5.54291016 8.68898438 -4.5625 7.75 C-3.92441406 7.14671875 -3.28632813 6.5434375 -2.62890625 5.921875 C-0.91483694 3.89951984 -0.40641122 2.58729395 0 0 Z " fill="#070707" transform="translate(138,348)"/>
</svg>
